<svg xmlns="http://www.w3.org/2000/svg" viewBox="0 0 500 540" width="500" height="540">
  <!-- White border (slightly larger shield behind) -->
  <path d="M250 10
    C150 10, 30 60, 10 160
    C-10 260, 60 400, 250 530
    C440 400, 510 260, 490 160
    C470 60, 350 10, 250 10 Z"
    fill="white"
    stroke="white"
    stroke-width="18"/>

  <!-- Shield background -->
  <path d="M250 28
    C155 28, 46 74, 27 166
    C8 258, 74 393, 250 514
    C426 393, 492 258, 473 166
    C454 74, 345 28, 250 28 Z"
    fill="#E3000F"/>

  <!-- White curved stripe -->
  <path d="M42 228
    C94 188, 168 172, 255 177
    C342 182, 418 203, 470 238
    L473 218
    C425 178, 345 155, 255 150
    C165 145, 85 165, 30 208 Z"
    fill="white"/>

  <!-- DUCATI text -->
  <text x="250" y="155"
    font-family="Arial Black, Arial, sans-serif"
    font-size="96"
    font-weight="900"
    font-style="italic"
    fill="white"
    text-anchor="middle"
    letter-spacing="-2">DUCATI</text>
</svg>
